<?xml version="1.0" standalone="no"?>
<!DOCTYPE svg PUBLIC "-//W3C//DTD SVG 20010904//EN"
 "http://www.w3.org/TR/2001/REC-SVG-20010904/DTD/svg10.dtd">
<svg version="1.0" xmlns="http://www.w3.org/2000/svg"
 width="203.000000pt" height="215.000000pt" viewBox="0 0 203.000000 215.000000"
 preserveAspectRatio="xMidYMid meet">

<g transform="translate(0.000000,215.000000) scale(0.100000,-0.100000)"
fill="#000000" stroke="none">
<path d="M817 1934 c-241 -43 -472 -172 -612 -341 -220 -265 -262 -598 -115
-898 185 -375 651 -595 1101 -519 395 67 701 322 801 669 19 67 23 102 22 220
0 125 -3 149 -28 225 -131 400 -524 663 -985 659 -58 0 -141 -7 -184 -15z
m923 -352 c0 -15 -282 -285 -370 -355 -215 -172 -404 -247 -521 -208 -63 21
-122 90 -155 184 -13 36 -13 42 2 59 10 10 28 18 41 18 32 0 161 -52 248 -100
l71 -39 81 43 c99 53 172 102 328 220 142 107 255 186 267 186 4 0 8 -4 8 -8z
m-602 -184 c7 -7 12 -30 12 -51 0 -32 -7 -46 -39 -78 -43 -43 -87 -52 -116
-22 -46 46 24 163 98 163 18 0 38 -5 45 -12z m-210 -444 c157 -32 293 -106
411 -223 68 -66 141 -167 141 -195 0 -18 -66 5 -144 51 -45 25 -150 91 -235
145 -204 133 -276 171 -304 165 -12 -3 -84 -21 -159 -41 -214 -55 -353 -66
-353 -26 0 25 224 108 354 130 79 13 209 11 289 -6z m-227 -144 c68 -37 -64
-134 -137 -101 -20 9 -25 17 -22 38 6 50 107 90 159 63z"/>
</g>
</svg>
