<?xml version="1.0" standalone="no"?>
<!DOCTYPE svg PUBLIC "-//W3C//DTD SVG 20010904//EN"
 "http://www.w3.org/TR/2001/REC-SVG-20010904/DTD/svg10.dtd">
<svg version="1.0" xmlns="http://www.w3.org/2000/svg"
 width="611.000000pt" height="298.000000pt" viewBox="0 0 611.000000 298.000000"
 preserveAspectRatio="xMidYMid meet">

<g transform="translate(0.000000,298.000000) scale(0.100000,-0.100000)"
fill="#000000" stroke="none">
<path d="M1450 2284 c-255 -49 -453 -185 -576 -394 -193 -327 -133 -740 144
-1002 87 -82 185 -141 300 -181 76 -26 104 -31 222 -35 112 -3 149 -1 221 16
298 72 520 288 600 587 30 111 30 297 0 409 -42 159 -140 312 -265 418 -75 63
-218 138 -311 163 -59 16 -284 29 -335 19z m703 -338 c-21 -38 -215 -245 -292
-313 -202 -178 -350 -236 -444 -174 -40 26 -75 78 -94 138 -14 44 -14 54 -3
68 25 30 85 9 256 -86 l40 -23 85 56 c46 30 135 97 198 149 210 173 242 199
252 199 6 0 7 -6 2 -14z m-472 -167 c18 -34 2 -84 -37 -118 -19 -17 -41 -31
-49 -31 -24 0 -45 30 -45 65 0 74 101 139 131 84z m-120 -408 c123 -39 253
-140 333 -260 53 -80 65 -111 40 -111 -23 0 -83 38 -274 175 -91 64 -183 127
-205 140 l-40 24 -115 -35 c-176 -54 -320 -69 -320 -33 0 16 160 87 246 109
101 25 239 22 335 -9z m-232 -120 c22 -14 5 -59 -30 -76 -38 -20 -88 -16 -103
8 -9 15 -5 23 22 48 33 30 82 38 111 20z"/>
<path d="M3192 2069 c-26 -13 -55 -39 -70 -62 l-27 -41 0 -341 0 -341 28 -43
c37 -56 91 -80 180 -81 37 0 82 6 100 14 43 17 93 76 106 123 7 23 11 160 11
339 l0 302 -28 53 c-37 72 -88 99 -186 99 -52 0 -82 -6 -114 -21z m177 -135
c20 -26 21 -39 21 -311 l0 -284 -25 -24 c-30 -31 -82 -33 -119 -4 l-26 20 0
295 c0 281 1 295 20 314 31 31 102 28 129 -6z"/>
<path d="M4935 2074 c-47 -24 -83 -64 -100 -109 -14 -34 -16 -88 -13 -355 l3
-315 27 -47 c37 -63 90 -88 184 -88 110 1 167 36 203 126 9 22 11 118 9 355
l-3 326 -28 41 c-39 59 -89 82 -179 82 -46 0 -84 -6 -103 -16z m165 -134 c19
-19 20 -33 20 -310 l0 -291 -25 -24 c-16 -17 -35 -25 -60 -25 -25 0 -44 8 -60
25 l-25 24 0 281 c0 335 1 340 88 340 29 0 48 -6 62 -20z"/>
<path d="M2695 2057 c-22 -13 -49 -40 -62 -62 -22 -39 -23 -46 -23 -370 0
-324 1 -331 23 -370 37 -65 83 -85 205 -85 l102 0 0 65 0 65 -88 0 c-55 0 -92
4 -100 12 -17 17 -17 609 0 626 8 8 45 12 100 12 l88 0 0 65 0 65 -102 0 c-88
0 -109 -4 -143 -23z"/>
<path d="M3680 1625 l0 -455 65 0 65 0 0 108 0 108 45 44 c24 24 46 42 49 39
2 -2 16 -47 30 -99 15 -52 34 -119 42 -147 l15 -53 66 0 65 0 -7 28 c-3 15
-27 108 -53 206 l-48 178 38 38 38 38 0 129 c0 174 -22 233 -100 273 -33 17
-59 20 -175 20 l-135 0 0 -455z m267 295 c7 -14 13 -63 13 -115 l0 -89 -67
-68 c-37 -38 -71 -68 -75 -68 -5 0 -8 83 -8 185 l0 186 62 -3 c55 -3 64 -6 75
-28z"/>
<path d="M4250 1625 l0 -455 65 0 65 0 0 109 0 108 140 137 140 136 0 123 c0
177 -22 237 -100 277 -33 17 -59 20 -175 20 l-135 0 0 -455z m267 295 c7 -15
13 -63 13 -116 l0 -91 -69 -66 c-38 -37 -72 -67 -75 -67 -3 0 -6 83 -6 185 l0
186 62 -3 c55 -3 64 -6 75 -28z"/>
<path d="M2630 915 c0 -85 17 -103 22 -22 l3 52 29 -52 c42 -76 56 -70 56 22
0 43 -4 75 -10 75 -5 0 -10 -20 -10 -45 0 -25 -3 -45 -8 -45 -4 0 -18 20 -31
45 -36 68 -51 60 -51 -30z"/>
<path d="M2800 920 c-23 -68 -21 -103 4 -67 16 21 62 23 70 2 3 -8 12 -15 20
-15 12 0 10 14 -11 75 -33 99 -50 100 -83 5z m53 0 c4 -15 0 -20 -13 -20 -13
0 -17 5 -13 20 3 11 9 20 13 20 4 0 10 -9 13 -20z"/>
<path d="M2920 980 c0 -5 9 -10 20 -10 18 0 20 -7 20 -65 0 -51 3 -65 15 -65
12 0 15 14 15 65 0 58 2 65 20 65 11 0 20 5 20 10 0 6 -25 10 -55 10 -30 0
-55 -4 -55 -10z"/>
<path d="M3085 980 c-8 -13 -45 -121 -45 -132 0 -4 7 -8 15 -8 8 0 15 7 15 15
0 10 10 15 30 15 18 0 33 -6 36 -15 4 -8 13 -15 21 -15 16 0 14 8 -19 98 -18
49 -39 65 -53 42z m34 -72 c1 -5 -6 -8 -14 -8 -16 0 -19 9 -8 36 6 16 7 16 14
-2 4 -10 8 -22 8 -26z"/>
<path d="M3180 980 c0 -5 9 -10 20 -10 18 0 20 -7 20 -65 0 -50 3 -65 15 -65
10 0 15 16 17 63 3 56 5 62 26 65 46 7 20 22 -38 22 -33 0 -60 -4 -60 -10z"/>
<path d="M3337 972 c-23 -26 -22 -94 1 -115 19 -17 68 -22 88 -9 34 22 41 94
13 129 -17 20 -83 16 -102 -5z m84 -26 c27 -57 -26 -112 -63 -66 -22 27 -22
39 -2 68 20 29 52 28 65 -2z"/>
<path d="M3490 915 c0 -60 3 -75 15 -75 10 0 15 10 15 31 0 27 3 30 28 27 21
-2 28 -9 30 -30 2 -16 10 -28 17 -28 17 0 19 117 3 138 -6 6 -32 12 -59 12
l-49 0 0 -75z m85 30 c0 -14 -8 -21 -27 -23 -24 -3 -28 0 -28 23 0 23 4 26 28
23 19 -2 27 -9 27 -23z"/>
<path d="M3650 915 c0 -43 4 -75 10 -75 6 0 10 32 10 75 0 43 -4 75 -10 75 -6
0 -10 -32 -10 -75z"/>
<path d="M3726 968 c-22 -31 -20 -84 4 -108 28 -28 84 -27 104 2 22 31 20 91
-2 111 -28 25 -87 22 -106 -5z m82 -10 c7 -7 12 -26 12 -43 0 -50 -33 -71 -64
-39 -31 30 -15 94 24 94 9 0 21 -5 28 -12z"/>
<path d="M3977 984 c-4 -4 -7 -20 -7 -35 0 -15 -4 -31 -10 -34 -14 -9 -12 -51
3 -62 6 -6 33 -10 60 -10 44 0 59 9 37 22 -6 4 -6 15 0 30 7 20 6 25 -5 25 -8
0 -15 -5 -15 -12 0 -6 -3 -8 -7 -4 -5 4 -8 24 -8 44 0 30 -4 38 -20 40 -12 2
-24 0 -28 -4z m33 -30 c0 -8 -4 -12 -10 -9 -5 3 -10 10 -10 16 0 5 5 9 10 9 6
0 10 -7 10 -16z m4 -86 c-8 -13 -31 -9 -37 6 -9 23 14 38 29 18 7 -9 10 -20 8
-24z"/>
<path d="M4186 968 c-22 -31 -20 -84 4 -108 15 -15 31 -20 65 -18 45 3 45 3
45 41 0 35 -2 37 -30 37 -16 0 -30 -4 -30 -10 0 -5 9 -10 20 -10 11 0 20 -4
20 -10 0 -19 -39 -31 -61 -20 -16 9 -19 19 -17 47 4 46 27 62 62 43 30 -16 45
-7 26 15 -20 24 -86 20 -104 -7z"/>
<path d="M4340 915 c0 -60 3 -75 15 -75 12 0 15 15 15 75 0 60 -3 75 -15 75
-12 0 -15 -15 -15 -75z"/>
<path d="M4410 916 c0 -61 3 -76 15 -76 11 0 15 12 16 48 l1 47 12 -45 c18
-66 39 -64 57 7 l14 58 3 -57 c4 -85 22 -71 22 17 0 68 -2 75 -20 75 -14 0
-22 -11 -29 -37 -6 -21 -11 -44 -11 -52 0 -25 -15 -1 -25 42 -8 32 -16 43 -33
45 -21 3 -22 0 -22 -72z"/>
<path d="M4590 916 c0 -60 3 -76 14 -76 11 0 16 14 18 48 l3 47 28 -47 c42
-72 57 -64 57 27 0 59 -3 75 -14 75 -11 0 -16 -14 -18 -47 l-3 -48 -25 45
c-14 25 -33 46 -43 48 -15 3 -17 -6 -17 -72z"/>
<path d="M4785 980 c-8 -13 -45 -121 -45 -132 0 -4 7 -8 15 -8 8 0 15 7 15 15
0 10 10 15 30 15 18 0 33 -6 36 -15 4 -8 13 -15 21 -15 16 0 14 8 -19 98 -18
49 -39 65 -53 42z m34 -72 c1 -5 -6 -8 -14 -8 -16 0 -19 9 -8 36 6 16 7 16 14
-2 4 -10 8 -22 8 -26z"/>
<path d="M4912 978 c-28 -28 -8 -63 44 -77 15 -4 29 -12 32 -19 6 -19 -27 -26
-54 -12 -28 16 -42 7 -24 -15 16 -20 74 -19 94 1 30 30 16 61 -36 74 -23 7
-38 16 -35 23 5 15 47 22 47 8 0 -6 7 -11 15 -11 20 0 19 26 -1 34 -26 10 -69
7 -82 -6z"/>
<path d="M5050 915 c0 -60 3 -75 15 -75 12 0 15 15 15 75 0 60 -3 75 -15 75
-12 0 -15 -15 -15 -75z"/>
<path d="M5137 972 c-23 -26 -22 -94 1 -115 19 -17 68 -22 88 -9 34 22 41 94
13 129 -17 20 -83 16 -102 -5z m84 -26 c27 -57 -26 -112 -63 -66 -22 27 -22
39 -2 68 20 29 52 28 65 -2z"/>
</g>
</svg>
