<?xml version="1.0" standalone="no"?>
<!DOCTYPE svg PUBLIC "-//W3C//DTD SVG 20010904//EN"
 "http://www.w3.org/TR/2001/REC-SVG-20010904/DTD/svg10.dtd">
<svg version="1.0" xmlns="http://www.w3.org/2000/svg"
 width="576.000000pt" height="288.000000pt" viewBox="0 0 576.000000 288.000000"
 preserveAspectRatio="xMidYMid meet">
<metadata>
Created by potrace 1.16, written by Peter Selinger 2001-2019
</metadata>
<g transform="translate(0.000000,288.000000) scale(0.100000,-0.100000)"
fill="#000000" stroke="none">
<path d="M831 2605 c-215 -49 -379 -141 -530 -300 -215 -227 -325 -551 -292
-862 21 -206 81 -372 192 -533 136 -199 324 -334 565 -406 78 -23 108 -27 234
-27 119 -1 161 3 233 21 364 91 646 377 749 759 31 112 32 127 32 293 0 159
-3 184 -28 274 -55 203 -150 370 -286 505 -126 126 -258 203 -437 257 -110 33
-328 43 -432 19z m888 -456 c-100 -141 -337 -395 -464 -498 -168 -137 -310
-188 -408 -147 -54 22 -112 98 -141 182 -31 94 -25 124 28 124 45 0 102 -25
225 -100 l101 -62 83 55 c95 64 220 167 402 332 166 150 230 192 174 114z
m-589 -189 c24 -24 27 -88 5 -129 -20 -39 -72 -81 -100 -81 -31 0 -55 35 -55
79 0 62 68 149 118 151 6 0 21 -9 32 -20z m-201 -536 c207 -50 421 -228 520
-431 35 -72 37 -83 15 -83 -27 0 -101 50 -356 242 -134 101 -255 189 -270 197
-24 12 -35 11 -115 -17 -253 -86 -431 -111 -441 -60 -5 27 169 109 311 147 91
25 245 27 336 5z m-228 -174 c40 -22 18 -80 -41 -110 -45 -23 -78 -25 -102 -6
-68 51 63 158 143 116z"/>
<path d="M3040 2150 c-49 -4 -98 -13 -116 -22 -48 -26 -100 -90 -123 -153 -21
-57 -22 -68 -19 -510 l3 -452 35 -69 c27 -53 46 -76 84 -101 47 -32 52 -33
153 -33 120 0 157 13 215 78 73 81 73 82 73 592 0 510 0 511 -73 592 -63 70
-110 86 -232 78z m97 -202 c40 -33 43 -62 43 -460 0 -233 -4 -398 -10 -420 -6
-21 -21 -44 -33 -53 -25 -17 -109 -20 -139 -4 -45 24 -48 54 -48 466 0 243 4
402 11 426 7 27 19 42 38 50 36 16 117 13 138 -5z"/>
<path d="M5251 2138 c-57 -22 -117 -79 -145 -138 -20 -44 -21 -58 -21 -515 0
-446 1 -473 20 -515 28 -66 63 -108 110 -135 37 -22 54 -25 144 -25 81 0 109
4 140 20 57 29 106 91 130 168 21 65 22 80 19 507 -3 435 -3 441 -26 490 -28
60 -73 110 -125 136 -52 27 -182 31 -246 7z m197 -203 l22 -26 0 -420 c0 -507
4 -489 -114 -489 -44 0 -57 4 -77 26 l-24 26 -3 406 c-2 281 0 419 8 445 14
46 46 63 116 60 39 -2 54 -7 72 -28z"/>
<path d="M2305 2134 c-48 -18 -109 -74 -138 -129 -22 -39 -22 -50 -25 -508
l-3 -468 26 -58 c56 -123 125 -158 303 -153 l112 3 0 95 0 94 -113 0 c-98 0
-116 3 -130 18 -15 17 -17 63 -17 453 0 360 2 439 14 455 13 16 29 19 130 22
l116 4 0 94 0 94 -117 -1 c-77 0 -132 -6 -158 -15z"/>
<path d="M3570 1483 l0 -668 85 3 85 3 0 163 0 162 60 59 c33 32 61 57 64 54
2 -2 8 -24 14 -49 20 -90 92 -365 100 -378 5 -10 30 -14 85 -14 43 0 80 2 83
5 2 2 -27 133 -66 291 -38 158 -70 293 -70 299 0 7 20 34 45 61 27 29 47 62
51 83 4 19 5 112 2 206 -4 169 -5 173 -36 238 -59 123 -119 149 -349 149
l-153 0 0 -667z m313 466 c40 -18 47 -49 47 -202 l-1 -142 -88 -92 c-48 -51
-91 -93 -95 -93 -8 0 -8 525 1 533 11 11 110 8 136 -4z"/>
<path d="M4325 2138 c-3 -7 -4 -307 -3 -667 l3 -653 80 0 80 0 3 157 c3 183
-10 156 146 315 56 58 130 135 164 172 l62 67 0 188 c0 232 -12 284 -79 354
-64 66 -114 79 -303 79 -110 0 -150 -3 -153 -12z m338 -206 c20 -21 22 -33 25
-173 l4 -150 -93 -94 c-51 -52 -96 -95 -101 -95 -10 0 -11 524 0 534 4 4 37 6
75 4 53 -3 72 -8 90 -26z"/>
</g>
</svg>
