<?xml version="1.0" ?><svg height="512px" version="1.1" viewBox="0 0 512 512" width="512px" xmlns="http://www.w3.org/2000/svg" xmlns:xlink="http://www.w3.org/1999/xlink"><title/><desc/><defs><polygon id="path-1" points="190.845804 0.511398496 2.04985857 0.511398496 2.04985857 149.087741 190.845804 149.087741 190.845804 0.511398496"/></defs><g fill="none" fill-rule="evenodd" id="SVG" stroke="none" stroke-width="1"><g id="-Lifering"><g id="-LifeRing" transform="translate(0.000000, 48.000000)"><path d="M255.543795,258.784974 C201.429333,258.784974 155.605333,234.998388 140.041846,202.170538 C136.359385,194.401215 134.377026,186.120493 134.377026,177.531621 C134.377026,132.653125 188.622769,96.2782677 255.543795,96.2782677 C322.464821,96.2782677 376.710564,132.653125 376.710564,177.531621 C376.710564,222.403561 322.464821,258.784974 255.543795,258.784974 M255.543795,15.490418 C127.609436,15.490418 23.8900513,102.08723 23.8900513,208.903952 C23.8900513,315.720674 127.609436,402.317486 255.543795,402.317486 C383.478154,402.317486 487.197538,315.720674 487.197538,208.903952 C487.197538,102.08723 383.478154,15.490418 255.543795,15.490418" fill="#FEFEFE" id="Fill-1"/><path d="M306.891487,397.490015 C305.736205,360.872571 301.922462,303.628722 289.824821,255.432692 C278.948103,257.583188 267.460923,258.783008 255.540513,258.783008 C243.626667,258.783008 232.146051,257.570075 221.269333,255.419579 C209.165128,303.615609 205.351385,360.866015 204.196103,397.490015 C220.717949,400.610857 237.889641,402.315519 255.540513,402.315519 C273.197949,402.315519 290.369641,400.610857 306.891487,397.490015" fill="#5DB8E8" id="Fill-5"/><path d="M214.343549,389.265678 C241.709292,393.540445 269.403241,393.540445 296.742728,389.265678 C295.344574,354.221768 291.655549,307.789408 282.380472,266.680836 C264.637703,269.244385 246.5536,269.264054 228.705805,266.67428 C219.424164,307.789408 215.741703,354.228325 214.343549,389.265678 M255.539856,412.154039 C237.836472,412.154039 219.949292,410.469047 202.370626,407.158069 C197.598523,406.259844 194.204882,402.024415 194.355856,397.185798 C195.589908,358.050701 199.600574,301.272355 211.717908,253.03043 C212.991344,247.949227 218.019446,244.736595 223.172267,245.772505 C244.584369,249.994821 266.66601,249.975152 287.920574,245.785618 C293.079959,244.762821 298.101497,247.968896 299.374933,253.043543 C311.485703,301.265798 315.496369,358.044144 316.730421,397.185798 C316.881395,402.024415 313.487754,406.259844 308.715651,407.158069 C291.143549,410.469047 273.256369,412.154039 255.539856,412.154039" fill="#2E2E30" id="Fill-7"/><path d="M207.254318,19.7291248 C209.492677,45.5481925 213.122626,73.7996812 219.010626,100.051471 C230.543754,97.6124932 242.812062,96.2749895 255.546421,96.2749895 C268.280779,96.2749895 280.542523,97.6124932 292.075651,100.051471 C297.963651,73.7996812 301.5936,45.5481925 303.831959,19.7291248 C288.255344,16.9688842 272.107651,15.4936962 255.546421,15.4936962 C238.978626,15.4936962 222.830933,16.9688842 207.254318,19.7291248" fill="#5DB8E8" id="Fill-9"/><path d="M255.542482,86.4423699 C265.290174,86.4423699 274.972226,87.1832421 284.431097,88.6584301 C288.074174,70.5431218 291.001764,50.2183098 293.181046,27.9921444 C268.283405,24.4582496 242.794995,24.4582496 217.910482,27.9921444 C220.089764,50.2248662 223.017354,70.5496782 226.660431,88.6584301 C236.112738,87.1832421 245.79479,86.4423699 255.542482,86.4423699 M292.078277,109.888024 C291.408738,109.888024 290.712944,109.815904 290.030277,109.67822 C267.732021,104.937949 243.352944,104.937949 221.054687,109.67822 C215.783713,110.773137 210.578379,107.462159 209.403405,102.203934 C204.132431,78.679603 200.108636,51.2214376 197.44361,20.5834226 C197.003815,15.5087759 200.51561,10.9389714 205.537149,10.0538586 C238.423303,4.22522707 272.661662,4.22522707 305.547815,10.0538586 C310.569354,10.932415 314.081149,15.5087759 313.641354,20.5768662 C310.982892,51.2017684 306.965662,78.6664902 301.681559,102.203934 C300.657559,106.780295 296.594379,109.888024 292.078277,109.888024" fill="#2E2E30" id="Fill-11"/><path d="M134.373744,177.530965 C134.373744,163.519958 139.66441,150.335056 148.978872,138.828589 C117.267692,135.268469 80.1017436,134.993101 38.4,141.451146 C29.0330256,162.451266 23.8933333,185.175717 23.8933333,208.903296 C23.8933333,210.962003 24.0049231,212.994484 24.0771282,215.033522 C57.2258462,202.62883 95.9868718,189.830755 134.564103,180.861612 C134.498462,179.753582 134.373744,178.652108 134.373744,177.530965" fill="#5DB8E8" id="Fill-13"/><path d="M45.2988718,150.367182 C38.6428718,166.699152 34.8422564,183.653979 33.9495385,200.930069 C66.1070769,189.331814 96.5382564,180.008626 124.685128,173.111302 C125.29559,164.21428 127.744,155.461498 131.912205,147.141438 C103.529026,145.148295 74.4631795,146.216986 45.2988718,150.367182 M24.0836923,224.867453 C22.1669744,224.867453 20.2633846,224.310159 18.6289231,223.221798 C15.9901538,221.471242 14.3622564,218.560205 14.2441026,215.40658 L14.1915897,214.042851 C14.1193846,212.331633 14.0471795,210.626971 14.0471795,208.909197 C14.0471795,184.348956 19.2131282,160.306671 29.4071795,137.444535 C30.7659487,134.389257 33.5885128,132.238761 36.8968205,131.727362 C75.0998974,125.813498 113.197949,124.908716 150.075077,129.052355 C153.652513,129.452295 156.724513,131.766701 158.089846,135.084235 C159.455179,138.408325 158.897231,142.211032 156.639179,145.004054 C148.401231,155.186129 144.219897,166.128746 144.219897,177.536866 C144.219897,178.067934 144.27241,178.599002 144.311795,179.123513 L144.397128,180.244656 C144.705641,185.037377 141.489231,189.351483 136.795897,190.439844 C103.581538,198.169829 66.816,209.538611 27.5364103,224.244595 C26.4139487,224.664205 25.2455385,224.867453 24.0836923,224.867453" fill="#2E2E30" id="Fill-15"/><path d="M362.106749,138.825311 C371.42121,150.331777 376.711877,163.51668 376.711877,177.527687 C376.711877,178.64883 376.528082,179.737191 376.462441,180.851777 C415.059364,189.82092 453.840082,202.618995 487.008492,215.030244 C487.087262,212.991206 487.192287,210.958725 487.192287,208.906574 C487.192287,185.172439 482.052595,162.454544 472.685621,141.447868 C430.983877,134.989823 393.824492,135.271747 362.106749,138.825311" fill="#5DB8E8" id="Fill-17"/><path d="M386.407713,173.115892 C414.548021,180.006659 444.9792,189.336403 477.143303,200.928102 C476.250585,183.658568 472.436841,166.703741 465.793969,150.365215 C436.609969,146.221576 407.590072,145.152884 379.167508,147.139471 C383.348841,155.466087 385.797251,164.225426 386.407713,173.115892 M487.009149,224.872042 C485.840738,224.872042 484.678892,224.662238 483.556431,224.242629 C444.244021,209.530087 407.465354,198.148192 374.237867,190.43132 C369.57079,189.349516 366.354379,185.061636 366.636636,180.282027 C366.669456,179.698508 366.728533,179.121546 366.78761,178.544583 C366.820431,178.210208 366.866379,177.875832 366.866379,177.534899 C366.866379,166.139892 362.69161,155.190719 354.447097,145.002087 C352.189046,142.209065 351.631097,138.406358 352.996431,135.082268 C354.361764,131.764734 357.433764,129.450328 361.0112,129.050388 C397.914585,124.906749 435.999508,125.818087 474.196021,131.731952 C477.504328,132.24335 480.326892,134.400403 481.685662,137.455681 C491.873149,160.324373 497.039097,184.366659 497.039097,208.90723 C497.039097,210.631561 496.973456,212.329666 496.901251,214.040884 L496.848738,215.404614 C496.730585,218.564794 495.102687,221.469275 492.463918,223.226388 C490.829456,224.314749 488.925867,224.872042 487.009149,224.872042" fill="#2E2E30" id="Fill-19"/><path d="M255.543795,338.957835 C140.534154,338.957835 45.1511795,268.968361 27.0408205,177.224782 C24.9993846,187.537985 23.8900513,198.113444 23.8900513,208.905263 C23.8900513,315.721985 127.609436,402.318797 255.543795,402.318797 C383.478154,402.318797 487.197538,315.721985 487.197538,208.905263 C487.197538,198.113444 486.088205,187.537985 484.046769,177.224782 C465.93641,268.968361 370.553436,338.957835 255.543795,338.957835" fill="#010201" fill-opacity="0.3" id="Fill-21"/><path d="M136.600287,415.248 C85.7153641,415.248 48.523159,401.499248 25.614441,374.106647 C-23.7213538,315.118797 13.1098256,216.687699 14.6983385,212.524391 C16.6413128,207.456301 22.3323897,204.925534 27.3998769,206.846556 C32.4804923,208.780692 35.0273641,214.465083 33.0909538,219.533173 C32.7496205,220.451068 -1.19991795,311.440662 40.7578256,361.538045 C68.5371077,394.693714 123.944697,403.728421 205.431467,388.419248 C210.741826,387.370226 215.927467,390.917233 216.92521,396.260692 C217.936082,401.597594 214.417723,406.744361 209.074544,407.740932 C182.457108,412.750015 158.288082,415.248 136.600287,415.248" fill="#2E2E30" id="Fill-23"/><g id="Group-27" transform="translate(26.256410, 2.195368)"><mask fill="white" id="mask-2"><use xlink:href="#path-1"/></mask><g id="Clip-26"/><path d="M12.1389949,149.087741 C6.90084103,149.087741 2.54884103,144.970328 2.31253333,139.692433 C-0.0702358974,87.0642827 13.7668923,48.5454857 43.4563282,25.224403 C96.6518154,-16.5660331 180.206277,7.05664361 183.750892,8.09255338 C188.96279,9.61363609 191.969149,15.061997 190.452841,20.2808842 C188.943097,25.4866586 183.468636,28.4829293 178.256738,26.9815158 C177.482174,26.7585985 100.754379,5.16840301 55.5736615,40.7368241 C31.2011487,59.9077113 19.9043282,92.9125835 21.9785846,138.813877 C22.2280205,144.236012 18.0204308,148.832042 12.5853538,149.074629 C12.4409436,149.087741 12.2834051,149.087741 12.1389949,149.087741" fill="#2E2E30" id="Fill-25" mask="url(#mask-2)"/></g><path d="M374.484677,415.248 C352.790318,415.248 328.627856,412.750015 302.010421,407.740932 C296.667241,406.744361 293.148882,401.597594 294.159754,396.260692 C295.157497,390.917233 300.349703,387.370226 305.653497,388.419248 C387.166523,403.734977 442.593805,394.693714 470.359959,361.49215 C512.376779,311.263639 478.348472,220.457624 478.000574,219.539729 C476.0576,214.471639 478.597908,208.787248 483.685087,206.846556 C488.739446,204.905865 494.450215,207.449744 496.39319,212.524391 C497.981703,216.687699 534.812882,315.118797 485.477087,374.106647 C462.561805,401.492692 425.363036,415.248 374.484677,415.248" fill="#2E2E30" id="Fill-28"/><path d="M472.696123,151.28311 C472.551713,151.28311 472.394174,151.276553 472.249764,151.269997 C466.814687,151.027411 462.607097,146.43138 462.856533,141.009245 C464.93079,95.1079519 453.627405,62.1030797 429.261456,42.9321925 C384.074174,7.36377143 307.346379,28.9539669 306.571815,29.1768842 C301.359918,30.6717414 295.885456,27.6820271 294.375713,22.4762526 C292.865969,17.2573654 295.865764,11.8090045 301.077662,10.2879218 C304.615713,9.25856842 388.176738,-14.3641083 441.37879,27.4197714 C471.061662,50.7408541 484.905354,89.2530947 482.522585,141.887802 C482.286277,147.165696 477.934277,151.28311 472.696123,151.28311" fill="#2E2E30" id="Fill-30"/><path d="M255.542482,106.111543 C194.154995,106.111543 144.221867,138.152626 144.221867,177.53031 C144.221867,184.473528 145.810379,191.351182 148.948021,197.96658 C163.178995,227.981738 207.007508,248.949077 255.542482,248.949077 C316.929969,248.949077 366.869662,216.907994 366.869662,177.53031 C366.869662,138.152626 316.929969,106.111543 255.542482,106.111543 M255.542482,268.61825 C198.789251,268.61825 148.790482,243.612174 131.146174,206.37843 C126.75479,197.107693 124.529559,187.397678 124.529559,177.53031 C124.529559,127.301798 183.297969,86.4423699 255.542482,86.4423699 C327.786995,86.4423699 386.561969,127.301798 386.561969,177.53031 C386.561969,227.758821 327.786995,268.61825 255.542482,268.61825 M255.542482,25.3302496 C133.240123,25.3302496 33.7414564,107.67852 33.7414564,208.909197 C33.7414564,310.133317 133.240123,392.488144 255.542482,392.488144 C377.851405,392.488144 477.350072,310.133317 477.350072,208.909197 C477.350072,107.67852 377.851405,25.3302496 255.542482,25.3302496 M255.542482,412.157317 C122.383097,412.157317 14.0491487,320.977588 14.0491487,208.909197 C14.0491487,96.8342496 122.383097,5.66107669 255.542482,5.66107669 C388.708431,5.66107669 497.042379,96.8342496 497.042379,208.909197 C497.042379,320.977588 388.708431,412.157317 255.542482,412.157317" fill="#2E2E30" id="Fill-3"/></g></g></g></svg>